<svg xmlns="http://www.w3.org/2000/svg" xmlns:xlink="http://www.w3.org/1999/xlink" id="Layer_1" width="242.854" height="225.34" x="0" y="0" enable-background="new 0 0 242.854 225.34" version="1.1" viewBox="0 0 242.854 225.34" xml:space="preserve"><g><defs><rect id="SVGID_1_" width="234.001" height="201.318" x="3.173" y="1.925"/></defs><clipPath id="SVGID_2_"><use overflow="visible" xlink:href="#SVGID_1_"/></clipPath><path fill="none" stroke="#000" stroke-miterlimit="1" stroke-width=".654" d="M57.948,15.651 c0-6.498-11.647-11.766-26.015-11.766c-14.367,0-26.014,5.268-26.014,11.766c0,6.498,11.647,11.765,26.014,11.765 C46.301,27.416,57.948,22.149,57.948,15.651" clip-path="url(#SVGID_2_)"/><g clip-path="url(#SVGID_2_)"><text transform="matrix(1 0 0 1 16.8999 18.9839)"><tspan x="0" y="0" font-family="'Times-Roman'" font-size="9.151">Client </tspan><tspan x="25.36" y="0" font-family="'Times-Roman'" font-size="9.151">1</tspan></text></g><path fill="none" stroke="#000" stroke-miterlimit="1" stroke-width=".654" d="M201.348,15.651 c0-6.498-16.736-11.766-37.381-11.766c-20.646,0-37.382,5.268-37.382,11.766c0,6.498,16.736,11.765,37.382,11.765 C184.612,27.416,201.348,22.149,201.348,15.651" clip-path="url(#SVGID_2_)"/><g clip-path="url(#SVGID_2_)"><text transform="matrix(1 0 0 1 140.4365 18.9839)"><tspan x="0" y="0" font-family="'Times-Roman'" font-size="9.151">Head Serve</tspan><tspan x="43.802" y="0" font-family="'Times-Roman'" font-size="9.151">r</tspan></text></g><path fill="none" stroke="#000" stroke-miterlimit="1" stroke-width=".654" d="M58.654,15.651 c17.531,0,40.885,0,61.141,0" clip-path="url(#SVGID_2_)"/><polyline points="119.998 13.363 126.534 15.651 119.998 17.938" clip-path="url(#SVGID_2_)"/><polygon fill="none" stroke="#000" stroke-miterlimit="1" stroke-width=".654" points="119.998 13.363 126.534 15.651 119.998 17.938" clip-path="url(#SVGID_2_)"/><g clip-path="url(#SVGID_2_)"><text transform="matrix(1 0 0 1 63.6348 14.082)"><tspan x="0" y="0" font-family="'Times-Roman'" font-size="9.151">Update reques</tspan><tspan x="54.141" y="0" font-family="'Times-Roman'" font-size="9.151">t</tspan></text></g><path fill="none" stroke="#000" stroke-miterlimit="1" stroke-width=".654" d="M234.428,188.209 c0-6.497-11.646-11.765-26.015-11.765c-14.366,0-26.014,5.268-26.014,11.765c0,6.498,11.647,11.767,26.014,11.767 C222.782,199.976,234.428,194.707,234.428,188.209" clip-path="url(#SVGID_2_)"/><g clip-path="url(#SVGID_2_)"><text transform="matrix(1 0 0 1 193.3809 191.543)"><tspan x="0" y="0" font-family="'Times-Roman'" font-size="9.151">Client </tspan><tspan x="25.36" y="0" font-family="'Times-Roman'" font-size="9.151">2</tspan></text></g><path fill="none" stroke="#000" stroke-miterlimit="1" stroke-width=".654" d="M121.48,188.209 c0-6.497-15.217-11.765-33.988-11.765c-18.772,0-33.989,5.268-33.989,11.765c0,6.498,15.217,11.767,33.989,11.767 C106.264,199.976,121.48,194.707,121.48,188.209" clip-path="url(#SVGID_2_)"/><g clip-path="url(#SVGID_2_)"><text transform="matrix(1 0 0 1 66.5757 191.543)"><tspan x="0" y="0" font-family="'Times-Roman'" font-size="9.151">Tail Serve</tspan><tspan x="38.683" y="0" font-family="'Times-Roman'" font-size="9.151">r</tspan></text></g><path fill="none" stroke="#000" stroke-miterlimit="1" stroke-width=".654" d="M181.942,188.209 c-15.746,0-36.041,0-53.787,0" clip-path="url(#SVGID_2_)"/><polyline points="128.037 190.497 121.5 188.209 128.037 185.922" clip-path="url(#SVGID_2_)"/><polygon fill="none" stroke="#000" stroke-miterlimit="1" stroke-width=".654" points="128.037 190.497 121.5 188.209 128.037 185.922" clip-path="url(#SVGID_2_)"/><g clip-path="url(#SVGID_2_)"><text transform="matrix(1 0 0 1 127.0366 186.6411)"><tspan x="0" y="0" font-family="'Times-Roman'" font-size="9.151">Read reques</tspan><tspan x="46.281" y="0" font-family="'Times-Roman'" font-size="9.151">t</tspan></text></g><path fill="none" stroke="#000" stroke-miterlimit="1" stroke-width=".654" d="M201.872,73.17 c0-6.497-20.775-11.765-46.402-11.765s-46.4,5.268-46.4,11.765c0,6.498,20.773,11.766,46.4,11.766S201.872,79.668,201.872,73.17" clip-path="url(#SVGID_2_)"/><g clip-path="url(#SVGID_2_)"><text transform="matrix(1 0 0 1 124.7485 76.5039)"><tspan x="0" y="0" font-family="'Times-Roman'" font-size="9.151">Middle 1 Serve</tspan><tspan x="58.213" y="0" font-family="'Times-Roman'" font-size="9.151">r</tspan></text></g><path fill="none" stroke="#000" stroke-miterlimit="1" stroke-width=".654" d="M162.208,27.567 c-1.149,7.791-2.68,18.125-3.987,26.988" clip-path="url(#SVGID_2_)"/><polyline points="160.444 55.137 157.229 61.268 155.92 54.47" clip-path="url(#SVGID_2_)"/><polygon fill="none" stroke="#000" stroke-miterlimit="1" stroke-width=".654" points="160.444 55.137 157.229 61.268 155.92 54.47" clip-path="url(#SVGID_2_)"/><g clip-path="url(#SVGID_2_)"><text transform="matrix(1 0 0 1 160.6987 47.7441)"><tspan x="0" y="0" font-family="'Times-Roman'" font-size="9.151">Replicatio</tspan><tspan x="38.432" y="0" font-family="'Times-Roman'" font-size="9.151">n</tspan></text></g><path fill="none" stroke="#000" stroke-miterlimit="1" stroke-width=".654" d="M180.301,130.69 c0-6.498-20.774-11.767-46.401-11.767c-25.626,0-46.401,5.269-46.401,11.767s20.775,11.765,46.401,11.765 C159.527,142.455,180.301,137.188,180.301,130.69" clip-path="url(#SVGID_2_)"/><g clip-path="url(#SVGID_2_)"><text transform="matrix(1 0 0 1 103.1797 134.0239)"><tspan x="0" y="0" font-family="'Times-Roman'" font-size="9.151">Middle 2 Serve</tspan><tspan x="58.213" y="0" font-family="'Times-Roman'" font-size="9.151">r</tspan></text></g><path fill="none" stroke="#000" stroke-miterlimit="1" stroke-width=".654" d="M150.999,85.086 c-2.98,7.948-6.947,18.537-10.314,27.511" clip-path="url(#SVGID_2_)"/><polyline points="142.803 113.474 138.364 118.787 138.514 111.865" clip-path="url(#SVGID_2_)"/><polygon fill="none" stroke="#000" stroke-miterlimit="1" stroke-width=".654" points="142.803 113.474 138.364 118.787 138.514 111.865" clip-path="url(#SVGID_2_)"/><g clip-path="url(#SVGID_2_)"><text transform="matrix(1 0 0 1 146.9727 105.2642)"><tspan x="0" y="0" font-family="'Times-Roman'" font-size="9.151">Replicatio</tspan><tspan x="38.432" y="0" font-family="'Times-Roman'" font-size="9.151">n</tspan></text></g><path fill="none" stroke="#000" stroke-miterlimit="1" stroke-width=".654" d="M124.506,142.331 c-6.771,8.393-16.02,19.857-23.576,29.218" clip-path="url(#SVGID_2_)"/><polyline points="102.598 173.13 96.708 176.784 99.036 170.261" clip-path="url(#SVGID_2_)"/><polygon fill="none" stroke="#000" stroke-miterlimit="1" stroke-width=".654" points="102.598 173.13 96.708 176.784 99.036 170.261" clip-path="url(#SVGID_2_)"/><g clip-path="url(#SVGID_2_)"><text transform="matrix(1 0 0 1 114.9448 162.7832)"><tspan x="0" y="0" font-family="'Times-Roman'" font-size="9.151">Replicatio</tspan><tspan x="38.432" y="0" font-family="'Times-Roman'" font-size="9.151">n</tspan></text></g><path fill="none" stroke="#000" stroke-miterlimit="1" stroke-width=".654" d="M83.721,176.496 C74.21,146.965,49.216,69.32,37.783,33.822" clip-path="url(#SVGID_2_)"/><polyline points="35.581 34.436 35.75 27.514 39.934 33.031" clip-path="url(#SVGID_2_)"/><polygon fill="none" stroke="#000" stroke-miterlimit="1" stroke-width=".654" points="35.581 34.436 35.75 27.514 39.934 33.031" clip-path="url(#SVGID_2_)"/><g clip-path="url(#SVGID_2_)"><text transform="matrix(1 0 0 1 61.3467 105.2642)"><tspan x="0" y="0" font-family="'Times-Roman'" font-size="9.151">Update repl</tspan><tspan x="44.852" y="0" font-family="'Times-Roman'" font-size="9.151">y</tspan></text></g><path fill="none" stroke="#000" stroke-miterlimit="1" stroke-width=".654" d="M113.036,180.372 c4.517-1.091,9.203-2.032,13.674-2.621c21.891-2.869,27.871-3.47,49.676,0c1.752,0.282,3.543,0.641,5.334,1.059" clip-path="url(#SVGID_2_)"/><polyline points="182.426 176.627 188.145 180.529 181.243 181.052" clip-path="url(#SVGID_2_)"/><polygon fill="none" stroke="#000" stroke-miterlimit="1" stroke-width=".654" points="182.426 176.627 188.145 180.529 181.243 181.052" clip-path="url(#SVGID_2_)"/><g clip-path="url(#SVGID_2_)"><text transform="matrix(1 0 0 1 130.6318 174.2222)"><tspan x="0" y="0" font-family="'Times-Roman'" font-size="9.151">Read repl</tspan><tspan x="37.046" y="0" font-family="'Times-Roman'" font-size="9.151">y</tspan></text></g></g><line x1="1.743" x2="240.854" y1="207.388" y2="207.388" fill="none" stroke="#000" stroke-miterlimit="10" stroke-width=".333"/><text transform="matrix(1 0 0 1 4.8389 217.7148)"><tspan x="0" y="0" font-family="'Times-Bold'" font-size="8.966">Figu</tspan><tspan x="17.438" y="0" font-family="'Times-Bold'" font-size="8.966">r</tspan><tspan x="21.256" y="0" font-family="'Times-Bold'" font-size="8.966" letter-spacing="2">e</tspan><tspan x="27.469" y="0" font-family="'Times-Bold'" font-size="8.966">1.</tspan></text><text transform="matrix(1 0 0 1 43.521 217.7148)"><tspan x="0" y="0" font-family="'Times-Roman'" font-size="8.966">Writ</tspan><tspan x="16.431" y="0" font-family="'Times-Roman'" font-size="8.966" letter-spacing="2">e</tspan><tspan x="22.652" y="0" font-family="'Times-Roman'" font-size="8.966">an</tspan><tspan x="31.115" y="0" font-family="'Times-Roman'" font-size="8.966" letter-spacing="2">d</tspan><tspan x="37.84" y="0" font-family="'Times-Roman'" font-size="8.966">rea</tspan><tspan x="48.785" y="0" font-family="'Times-Roman'" font-size="8.966" letter-spacing="2">d</tspan><tspan x="55.501" y="0" font-family="'Times-Roman'" font-size="8.966">operation</tspan><tspan x="89.361" y="0" font-family="'Times-Roman'" font-size="8.966" letter-spacing="2">s</tspan><tspan x="95.101" y="0" font-family="'Times-Roman'" font-size="8.966">upo</tspan><tspan x="108.551" y="0" font-family="'Times-Roman'" font-size="8.966" letter-spacing="2">n</tspan><tspan x="115.267" y="0" font-family="'Times-Roman'" font-size="8.966" letter-spacing="2">a</tspan><tspan x="121.488" y="0" font-family="'Times-Roman'" font-size="8.966">chai</tspan><tspan x="136.422" y="0" font-family="'Times-Roman'" font-size="8.966" letter-spacing="2">n</tspan><tspan x="143.146" y="0" font-family="'Times-Roman'" font-size="8.966">o</tspan><tspan x="147.63" y="0" font-family="'Times-Roman'" font-size="8.966" letter-spacing="2">f</tspan><tspan x="152.857" y="0" font-family="'Times-Roman'" font-size="8.966">lengt</tspan><tspan x="170.786" y="0" font-family="'Times-Roman'" font-size="8.966" letter-spacing="2">h</tspan><tspan x="177.501" y="0" font-family="'Times-Roman'" font-size="8.966">fou</tspan><tspan x="189.454" y="0" font-family="'Times-Roman'" font-size="8.966">r</tspan><tspan x="191.955" y="0" font-family="'Times-Roman'" font-size="8.966">.</tspan></text></svg>