<svg xmlns="http://www.w3.org/2000/svg" xmlns:xlink="http://www.w3.org/1999/xlink" width="242.854" height="132.059" x="0" y="0" enable-background="new 0 0 242.854 132.059" version="1.1" viewBox="0 0 242.854 132.059" xml:space="preserve"><g id="Layer_1" display="none"><g display="inline"><defs><rect id="SVGID_1_" width="234.001" height="201.318" x="3.173" y="1.925"/></defs><clipPath id="SVGID_2_"><use overflow="visible" xlink:href="#SVGID_1_"/></clipPath><path fill="none" stroke="#000" stroke-miterlimit="1" stroke-width=".654" d="M57.948,15.651 c0-6.498-11.647-11.766-26.015-11.766c-14.367,0-26.014,5.268-26.014,11.766c0,6.498,11.647,11.765,26.014,11.765 C46.301,27.416,57.948,22.149,57.948,15.651" clip-path="url(#SVGID_2_)"/><g clip-path="url(#SVGID_2_)"><text transform="matrix(1 0 0 1 16.8999 18.9839)"><tspan x="0" y="0" font-family="'Times-Roman'" font-size="9.151">Client </tspan><tspan x="25.36" y="0" font-family="'Times-Roman'" font-size="9.151">1</tspan></text></g><path fill="none" stroke="#000" stroke-miterlimit="1" stroke-width=".654" d="M201.348,15.651 c0-6.498-16.736-11.766-37.381-11.766c-20.646,0-37.382,5.268-37.382,11.766c0,6.498,16.736,11.765,37.382,11.765 C184.612,27.416,201.348,22.149,201.348,15.651" clip-path="url(#SVGID_2_)"/><g clip-path="url(#SVGID_2_)"><text transform="matrix(1 0 0 1 140.4365 18.9839)"><tspan x="0" y="0" font-family="'Times-Roman'" font-size="9.151">Head Serve</tspan><tspan x="43.802" y="0" font-family="'Times-Roman'" font-size="9.151">r</tspan></text></g><path fill="none" stroke="#000" stroke-miterlimit="1" stroke-width=".654" d="M58.654,15.651 c17.531,0,40.885,0,61.141,0" clip-path="url(#SVGID_2_)"/><polyline points="119.998 13.363 126.534 15.651 119.998 17.938" clip-path="url(#SVGID_2_)"/><polygon fill="none" stroke="#000" stroke-miterlimit="1" stroke-width=".654" points="119.998 13.363 126.534 15.651 119.998 17.938" clip-path="url(#SVGID_2_)"/><g clip-path="url(#SVGID_2_)"><text transform="matrix(1 0 0 1 63.6348 14.082)"><tspan x="0" y="0" font-family="'Times-Roman'" font-size="9.151">Update reques</tspan><tspan x="54.141" y="0" font-family="'Times-Roman'" font-size="9.151">t</tspan></text></g><path fill="none" stroke="#000" stroke-miterlimit="1" stroke-width=".654" d="M234.428,188.209 c0-6.497-11.646-11.765-26.015-11.765c-14.366,0-26.014,5.268-26.014,11.765c0,6.498,11.647,11.767,26.014,11.767 C222.782,199.976,234.428,194.707,234.428,188.209" clip-path="url(#SVGID_2_)"/><g clip-path="url(#SVGID_2_)"><text transform="matrix(1 0 0 1 193.3809 191.543)"><tspan x="0" y="0" font-family="'Times-Roman'" font-size="9.151">Client </tspan><tspan x="25.36" y="0" font-family="'Times-Roman'" font-size="9.151">2</tspan></text></g><path fill="none" stroke="#000" stroke-miterlimit="1" stroke-width=".654" d="M121.48,188.209 c0-6.497-15.217-11.765-33.988-11.765c-18.772,0-33.989,5.268-33.989,11.765c0,6.498,15.217,11.767,33.989,11.767 C106.264,199.976,121.48,194.707,121.48,188.209" clip-path="url(#SVGID_2_)"/><g clip-path="url(#SVGID_2_)"><text transform="matrix(1 0 0 1 66.5757 191.543)"><tspan x="0" y="0" font-family="'Times-Roman'" font-size="9.151">Tail Serve</tspan><tspan x="38.683" y="0" font-family="'Times-Roman'" font-size="9.151">r</tspan></text></g><path fill="none" stroke="#000" stroke-miterlimit="1" stroke-width=".654" d="M181.942,188.209 c-15.746,0-36.041,0-53.787,0" clip-path="url(#SVGID_2_)"/><polyline points="128.037 190.497 121.5 188.209 128.037 185.922" clip-path="url(#SVGID_2_)"/><polygon fill="none" stroke="#000" stroke-miterlimit="1" stroke-width=".654" points="128.037 190.497 121.5 188.209 128.037 185.922" clip-path="url(#SVGID_2_)"/><g clip-path="url(#SVGID_2_)"><text transform="matrix(1 0 0 1 127.0366 186.6411)"><tspan x="0" y="0" font-family="'Times-Roman'" font-size="9.151">Read reques</tspan><tspan x="46.281" y="0" font-family="'Times-Roman'" font-size="9.151">t</tspan></text></g><path fill="none" stroke="#000" stroke-miterlimit="1" stroke-width=".654" d="M201.872,73.17 c0-6.497-20.775-11.765-46.402-11.765s-46.4,5.268-46.4,11.765c0,6.498,20.773,11.766,46.4,11.766S201.872,79.668,201.872,73.17" clip-path="url(#SVGID_2_)"/><g clip-path="url(#SVGID_2_)"><text transform="matrix(1 0 0 1 124.7485 76.5039)"><tspan x="0" y="0" font-family="'Times-Roman'" font-size="9.151">Middle 1 Serve</tspan><tspan x="58.213" y="0" font-family="'Times-Roman'" font-size="9.151">r</tspan></text></g><path fill="none" stroke="#000" stroke-miterlimit="1" stroke-width=".654" d="M162.208,27.567 c-1.149,7.791-2.68,18.125-3.987,26.988" clip-path="url(#SVGID_2_)"/><polyline points="160.444 55.137 157.229 61.268 155.92 54.47" clip-path="url(#SVGID_2_)"/><polygon fill="none" stroke="#000" stroke-miterlimit="1" stroke-width=".654" points="160.444 55.137 157.229 61.268 155.92 54.47" clip-path="url(#SVGID_2_)"/><g clip-path="url(#SVGID_2_)"><text transform="matrix(1 0 0 1 160.6987 47.7441)"><tspan x="0" y="0" font-family="'Times-Roman'" font-size="9.151">Replicatio</tspan><tspan x="38.432" y="0" font-family="'Times-Roman'" font-size="9.151">n</tspan></text></g><path fill="none" stroke="#000" stroke-miterlimit="1" stroke-width=".654" d="M180.301,130.69 c0-6.498-20.774-11.767-46.401-11.767c-25.626,0-46.401,5.269-46.401,11.767s20.775,11.765,46.401,11.765 C159.527,142.455,180.301,137.188,180.301,130.69" clip-path="url(#SVGID_2_)"/><g clip-path="url(#SVGID_2_)"><text transform="matrix(1 0 0 1 103.1797 134.0239)"><tspan x="0" y="0" font-family="'Times-Roman'" font-size="9.151">Middle 2 Serve</tspan><tspan x="58.213" y="0" font-family="'Times-Roman'" font-size="9.151">r</tspan></text></g><path fill="none" stroke="#000" stroke-miterlimit="1" stroke-width=".654" d="M150.999,85.086 c-2.98,7.948-6.947,18.537-10.314,27.511" clip-path="url(#SVGID_2_)"/><polyline points="142.803 113.474 138.364 118.787 138.514 111.865" clip-path="url(#SVGID_2_)"/><polygon fill="none" stroke="#000" stroke-miterlimit="1" stroke-width=".654" points="142.803 113.474 138.364 118.787 138.514 111.865" clip-path="url(#SVGID_2_)"/><g clip-path="url(#SVGID_2_)"><text transform="matrix(1 0 0 1 146.9727 105.2642)"><tspan x="0" y="0" font-family="'Times-Roman'" font-size="9.151">Replicatio</tspan><tspan x="38.432" y="0" font-family="'Times-Roman'" font-size="9.151">n</tspan></text></g><path fill="none" stroke="#000" stroke-miterlimit="1" stroke-width=".654" d="M124.506,142.331 c-6.771,8.393-16.02,19.857-23.576,29.218" clip-path="url(#SVGID_2_)"/><polyline points="102.598 173.13 96.708 176.784 99.036 170.261" clip-path="url(#SVGID_2_)"/><polygon fill="none" stroke="#000" stroke-miterlimit="1" stroke-width=".654" points="102.598 173.13 96.708 176.784 99.036 170.261" clip-path="url(#SVGID_2_)"/><g clip-path="url(#SVGID_2_)"><text transform="matrix(1 0 0 1 114.9448 162.7832)"><tspan x="0" y="0" font-family="'Times-Roman'" font-size="9.151">Replicatio</tspan><tspan x="38.432" y="0" font-family="'Times-Roman'" font-size="9.151">n</tspan></text></g><path fill="none" stroke="#000" stroke-miterlimit="1" stroke-width=".654" d="M83.721,176.496 C74.21,146.965,49.216,69.32,37.783,33.822" clip-path="url(#SVGID_2_)"/><polyline points="35.581 34.436 35.75 27.514 39.934 33.031" clip-path="url(#SVGID_2_)"/><polygon fill="none" stroke="#000" stroke-miterlimit="1" stroke-width=".654" points="35.581 34.436 35.75 27.514 39.934 33.031" clip-path="url(#SVGID_2_)"/><g clip-path="url(#SVGID_2_)"><text transform="matrix(1 0 0 1 61.3467 105.2642)"><tspan x="0" y="0" font-family="'Times-Roman'" font-size="9.151">Update repl</tspan><tspan x="44.852" y="0" font-family="'Times-Roman'" font-size="9.151">y</tspan></text></g><path fill="none" stroke="#000" stroke-miterlimit="1" stroke-width=".654" d="M113.036,180.372 c4.517-1.091,9.203-2.032,13.674-2.621c21.891-2.869,27.871-3.47,49.676,0c1.752,0.282,3.543,0.641,5.334,1.059" clip-path="url(#SVGID_2_)"/><polyline points="182.426 176.627 188.145 180.529 181.243 181.052" clip-path="url(#SVGID_2_)"/><polygon fill="none" stroke="#000" stroke-miterlimit="1" stroke-width=".654" points="182.426 176.627 188.145 180.529 181.243 181.052" clip-path="url(#SVGID_2_)"/><g clip-path="url(#SVGID_2_)"><text transform="matrix(1 0 0 1 130.6318 174.2222)"><tspan x="0" y="0" font-family="'Times-Roman'" font-size="9.151">Read repl</tspan><tspan x="37.046" y="0" font-family="'Times-Roman'" font-size="9.151">y</tspan></text></g></g><line x1="1.743" x2="240.854" y1="207.388" y2="207.388" fill="none" stroke="#000" stroke-miterlimit="10" stroke-width=".333" display="inline"/><text display="inline" transform="matrix(1 0 0 1 4.8389 217.7148)"><tspan x="0" y="0" font-family="'Times-Bold'" font-size="8.966">Figu</tspan><tspan x="17.438" y="0" font-family="'Times-Bold'" font-size="8.966">r</tspan><tspan x="21.256" y="0" font-family="'Times-Bold'" font-size="8.966" letter-spacing="2">e</tspan><tspan x="27.469" y="0" font-family="'Times-Bold'" font-size="8.966">1.</tspan></text><text display="inline" transform="matrix(1 0 0 1 43.521 217.7148)"><tspan x="0" y="0" font-family="'Times-Roman'" font-size="8.966">Writ</tspan><tspan x="16.431" y="0" font-family="'Times-Roman'" font-size="8.966" letter-spacing="2">e</tspan><tspan x="22.652" y="0" font-family="'Times-Roman'" font-size="8.966">an</tspan><tspan x="31.115" y="0" font-family="'Times-Roman'" font-size="8.966" letter-spacing="2">d</tspan><tspan x="37.84" y="0" font-family="'Times-Roman'" font-size="8.966">rea</tspan><tspan x="48.785" y="0" font-family="'Times-Roman'" font-size="8.966" letter-spacing="2">d</tspan><tspan x="55.501" y="0" font-family="'Times-Roman'" font-size="8.966">operation</tspan><tspan x="89.361" y="0" font-family="'Times-Roman'" font-size="8.966" letter-spacing="2">s</tspan><tspan x="95.101" y="0" font-family="'Times-Roman'" font-size="8.966">upo</tspan><tspan x="108.551" y="0" font-family="'Times-Roman'" font-size="8.966" letter-spacing="2">n</tspan><tspan x="115.267" y="0" font-family="'Times-Roman'" font-size="8.966" letter-spacing="2">a</tspan><tspan x="121.488" y="0" font-family="'Times-Roman'" font-size="8.966">chai</tspan><tspan x="136.422" y="0" font-family="'Times-Roman'" font-size="8.966" letter-spacing="2">n</tspan><tspan x="143.146" y="0" font-family="'Times-Roman'" font-size="8.966">o</tspan><tspan x="147.63" y="0" font-family="'Times-Roman'" font-size="8.966" letter-spacing="2">f</tspan><tspan x="152.857" y="0" font-family="'Times-Roman'" font-size="8.966">lengt</tspan><tspan x="170.786" y="0" font-family="'Times-Roman'" font-size="8.966" letter-spacing="2">h</tspan><tspan x="177.501" y="0" font-family="'Times-Roman'" font-size="8.966">fou</tspan><tspan x="189.454" y="0" font-family="'Times-Roman'" font-size="8.966">r</tspan><tspan x="191.955" y="0" font-family="'Times-Roman'" font-size="8.966">.</tspan></text></g><g id="Layer_2"><g><defs><rect id="SVGID_3_" width="232.601" height="85.045" x="4.751" y="4.282"/></defs><clipPath id="SVGID_4_"><use overflow="visible" xlink:href="#SVGID_3_"/></clipPath><path fill="none" stroke="#000" stroke-miterlimit="10" stroke-width=".304" d="M52.263,85.967 c0,1.397-3.946,2.53-8.81,2.53c-4.862,0-8.81-1.133-8.81-2.53c0-1.396,3.947-2.529,8.81-2.529 C48.317,83.438,52.263,84.57,52.263,85.967z M214.134,53.726c0,7.656-6.213,13.869-13.868,13.869 c-7.655,0-13.869-6.213-13.869-13.869c0-7.655,6.214-13.868,13.869-13.868C207.921,39.857,214.134,46.071,214.134,53.726z" clip-path="url(#SVGID_4_)"/></g><rect width="17.576" height="10.031" x="34.729" y="75.865" fill="#FFF" fill-rule="evenodd" clip-rule="evenodd"/><rect width="17.576" height="10.031" x="34.729" y="75.865" fill="none" stroke="#FFF" stroke-miterlimit="10" stroke-width=".304"/><path fill="none" stroke="#000" stroke-miterlimit="10" stroke-width=".304" d="M52.305,75.865v10.031 M34.729,75.865v10.031"/><g><defs><rect id="SVGID_5_" width="232.601" height="85.045" x="4.751" y="4.282"/></defs><clipPath id="SVGID_6_"><use overflow="visible" xlink:href="#SVGID_5_"/></clipPath><g clip-path="url(#SVGID_6_)"><text font-family="'Times-Roman'" font-size="7.85" transform="matrix(1 0 0 1 215.9854 11.1885)">replies</text></g><ellipse cx="96.629" cy="85.967" fill="none" stroke="#000" stroke-miterlimit="10" stroke-width=".304" clip-path="url(#SVGID_6_)" rx="8.809" ry="2.53"/></g><rect width="17.577" height="10.031" x="87.848" y="75.865" fill="#FFF" fill-rule="evenodd" clip-rule="evenodd"/><rect width="17.577" height="10.031" x="87.848" y="75.865" fill="none" stroke="#FFF" stroke-miterlimit="10" stroke-width=".304"/><path fill="none" stroke="#000" stroke-miterlimit="10" stroke-width=".304" d="M105.424,75.865v10.031 M87.848,75.865v10.031"/><g><defs><path id="SVGID_7_" d="M83.181,55.018v-2.616h-6.629l5.234,1.309l-5.234,1.308 M4.751,89.328h232.601V4.282H4.751V89.328z"/></defs><clipPath id="SVGID_8_"><use overflow="visible" xlink:href="#SVGID_7_"/></clipPath><line x1="56.36" x2="82.527" y1="53.71" y2="53.71" fill="none" stroke="#000" stroke-miterlimit="10" stroke-width=".304" clip-path="url(#SVGID_8_)"/></g><g><defs><rect id="SVGID_9_" width="232.601" height="85.045" x="4.751" y="4.282"/></defs><clipPath id="SVGID_10_"><use overflow="visible" xlink:href="#SVGID_9_"/></clipPath><path fill="none" stroke="#000" stroke-miterlimit="10" stroke-width=".304" d="M157.773,85.967 c0,1.397-3.946,2.53-8.809,2.53s-8.811-1.133-8.811-2.53c0-1.396,3.948-2.529,8.811-2.529S157.773,84.57,157.773,85.967z M76.552,55.018l5.234-1.308l-5.234-1.309" clip-path="url(#SVGID_10_)"/></g><rect width="17.577" height="10.031" x="140.183" y="75.865" fill="#FFF" fill-rule="evenodd" clip-rule="evenodd"/><rect width="17.577" height="10.031" x="140.183" y="75.865" fill="none" stroke="#FFF" stroke-miterlimit="10" stroke-width=".304"/><path fill="none" stroke="#000" stroke-miterlimit="10" stroke-width=".304" d="M161.411,53.791 c0,7.655-6.213,13.869-13.869,13.869s-13.869-6.213-13.869-13.869s6.213-13.869,13.869-13.869S161.411,46.136,161.411,53.791z M109.076,53.791c0,7.655-6.213,13.869-13.869,13.869c-7.655,0-13.869-6.213-13.869-13.869s6.214-13.869,13.869-13.869 C102.863,39.922,109.076,46.136,109.076,53.791z M57.129,53.726c0,7.656-6.213,13.869-13.869,13.869 c-7.655,0-13.868-6.213-13.868-13.869c0-7.655,6.213-13.868,13.868-13.868C50.916,39.857,57.129,46.071,57.129,53.726z M157.76,75.865v10.031 M140.183,75.865v10.031"/><g><defs><path id="SVGID_11_" d="M35.992,45.162l2.181-1.483l-3.664-5.496l1.833,5.103l-4.012-3.663 M4.751,89.328h232.601V4.282H4.751 V89.328z"/></defs><clipPath id="SVGID_12_"><use overflow="visible" xlink:href="#SVGID_11_"/></clipPath><line x1="17.108" x2="36.734" y1="14.459" y2="43.896" fill="none" stroke="#000" stroke-miterlimit="10" stroke-width=".304" clip-path="url(#SVGID_12_)"/></g><g><defs><rect id="SVGID_13_" width="232.601" height="85.045" x="4.751" y="4.282"/></defs><clipPath id="SVGID_14_"><use overflow="visible" xlink:href="#SVGID_13_"/></clipPath><path fill="none" stroke="#000" stroke-miterlimit="10" stroke-width=".304" d="M210.109,85.967 c0,1.397-3.948,2.53-8.811,2.53c-4.862,0-8.81-1.133-8.81-2.53c0-1.396,3.947-2.529,8.81-2.529 C206.162,83.438,210.109,84.57,210.109,85.967z M95.611,66.793v6.542 M32.33,39.623l4.012,3.663l-1.833-5.103" clip-path="url(#SVGID_14_)"/></g><text font-family="'Times-Roman'" font-size="7.85" transform="matrix(1 0 0 1 191.3447 56.9819)">TAIL</text><g><defs><path id="SVGID_15_" d="M135.518,55.018v-2.616h-6.631l5.235,1.309l-5.235,1.308 M4.751,89.328h232.601V4.282H4.751V89.328z"/></defs><clipPath id="SVGID_16_"><use overflow="visible" xlink:href="#SVGID_15_"/></clipPath><line x1="108.695" x2="134.862" y1="53.71" y2="53.71" fill="none" stroke="#000" stroke-dasharray="2.43 2.43" stroke-miterlimit="10" stroke-width=".304" clip-path="url(#SVGID_16_)"/></g><polyline fill="none" stroke="#000" stroke-miterlimit="10" stroke-width=".304" points="128.887 55.018 134.122 53.71 128.887 52.402"/><g><defs><path id="SVGID_17_" d="M187.851,55.018v-2.616h-6.627l5.233,1.309l-5.233,1.308 M4.751,89.328h232.601V4.282H4.751V89.328z"/></defs><clipPath id="SVGID_18_"><use overflow="visible" xlink:href="#SVGID_17_"/></clipPath><line x1="161.03" x2="187.198" y1="53.71" y2="53.71" fill="none" stroke="#000" stroke-miterlimit="10" stroke-width=".304" clip-path="url(#SVGID_18_)"/></g><path fill="none" stroke="#000" stroke-miterlimit="10" stroke-width=".304" d="M147.946,66.793v6.542 M181.224,55.018 l5.233-1.308l-5.233-1.309"/><g><defs><path id="SVGID_19_" d="M192.257,45.686l2.18-1.483l-3.663-5.495l1.832,5.102l-4.013-3.663 M4.751,89.328h232.601V4.282H4.751 V89.328z"/></defs><clipPath id="SVGID_20_"><use overflow="visible" xlink:href="#SVGID_19_"/></clipPath><line x1="173.374" x2="192.999" y1="14.981" y2="44.42" fill="none" stroke="#000" stroke-miterlimit="10" stroke-width=".304" clip-path="url(#SVGID_20_)"/></g><polyline fill="none" stroke="#000" stroke-miterlimit="10" stroke-width=".304" points="188.593 40.146 192.606 43.809 190.774 38.708"/><g><defs><path id="SVGID_21_" d="M227.888,14.501l-2.267-1.264l-3.228,5.757l3.708-3.925l-1.439,5.19 M4.751,89.328h232.601V4.282H4.751 V89.328z"/></defs><clipPath id="SVGID_22_"><use overflow="visible" xlink:href="#SVGID_21_"/></clipPath><line x1="210.095" x2="226.449" y1="43.896" y2="14.459" fill="none" stroke="#000" stroke-miterlimit="10" stroke-width=".304" clip-path="url(#SVGID_22_)"/></g><path fill="none" stroke="#000" stroke-miterlimit="10" stroke-width=".304" d="M200.281,66.793v6.542 M43.276,66.793v6.542 M224.661,20.259l1.439-5.19l-3.708,3.925"/><rect width="17.577" height="10.031" x="192.518" y="75.865" fill="#FFF" fill-rule="evenodd" clip-rule="evenodd"/><rect width="17.577" height="10.031" x="192.518" y="75.865" fill="none" stroke="#FFF" stroke-miterlimit="10" stroke-width=".304"/><line x1="192.518" x2="192.518" y1="75.865" y2="85.896" fill="none" stroke="#000" stroke-miterlimit="10" stroke-width=".304"/><g><defs><rect id="SVGID_23_" width="232.601" height="85.045" x="4.751" y="4.282"/></defs><clipPath id="SVGID_24_"><use overflow="visible" xlink:href="#SVGID_23_"/></clipPath><g clip-path="url(#SVGID_24_)"><text font-family="'Times-Roman'" font-size="7.85" transform="matrix(1 0 0 1 162.7788 11.1885)">queries</text></g></g><text font-family="'Times-Roman'" font-size="7.85" transform="matrix(1 0 0 1 32.376 56.9819)">HEAD</text><g><defs><rect id="SVGID_25_" width="232.601" height="85.045" x="4.751" y="4.282"/></defs><clipPath id="SVGID_26_"><use overflow="visible" xlink:href="#SVGID_25_"/></clipPath><g clip-path="url(#SVGID_26_)"><text font-family="'Times-Roman'" font-size="7.85" transform="matrix(1 0 0 1 5.1177 11.1885)">updates</text></g></g><ellipse cx="148.964" cy="75.888" fill="#FFF" fill-rule="evenodd" clip-rule="evenodd" rx="8.81" ry="2.53"/><ellipse cx="148.964" cy="75.888" fill="none" stroke="#000" stroke-miterlimit="10" stroke-width=".304" rx="8.81" ry="2.53"/><path fill="#FFF" fill-rule="evenodd" d="M210.109,75.888c0,1.396-3.948,2.53-8.811,2.53 c-4.862,0-8.81-1.134-8.81-2.53s3.947-2.53,8.81-2.53C206.162,73.357,210.109,74.491,210.109,75.888z" clip-rule="evenodd"/><path fill="none" stroke="#000" stroke-miterlimit="10" stroke-width=".304" d="M210.109,75.888c0,1.396-3.948,2.53-8.811,2.53 c-4.862,0-8.81-1.134-8.81-2.53s3.947-2.53,8.81-2.53C206.162,73.357,210.109,74.491,210.109,75.888z"/><ellipse cx="96.629" cy="75.888" fill="#FFF" fill-rule="evenodd" clip-rule="evenodd" rx="8.809" ry="2.53"/><ellipse cx="96.629" cy="75.888" fill="none" stroke="#000" stroke-miterlimit="10" stroke-width=".304" rx="8.809" ry="2.53"/><path fill="#FFF" fill-rule="evenodd" d="M52.263,75.888c0,1.396-3.946,2.53-8.81,2.53 c-4.862,0-8.81-1.134-8.81-2.53s3.947-2.53,8.81-2.53C48.317,73.357,52.263,74.491,52.263,75.888z" clip-rule="evenodd"/><path fill="none" stroke="#000" stroke-miterlimit="10" stroke-width=".304" d="M52.263,75.888c0,1.396-3.946,2.53-8.81,2.53 c-4.862,0-8.81-1.134-8.81-2.53s3.947-2.53,8.81-2.53C48.317,73.357,52.263,74.491,52.263,75.888z"/><line x1="210.095" x2="210.095" y1="75.865" y2="85.896" fill="none" stroke="#000" stroke-miterlimit="10" stroke-width=".304"/><text transform="matrix(1 0 0 1 77.8921 123.5718)"><tspan x="0" y="0" font-family="'CMR10'" font-size="10.728">F</tspan><tspan x="5.203" y="0" font-family="'CMR10'" font-size="10.728">i</tspan><tspan x="7.713" y="0" font-family="'CMR10'" font-size="10.728">g</tspan><tspan x="13.764" y="0" font-family="'CMR10'" font-size="10.728">u</tspan><tspan x="19.665" y="0" font-family="'CMR10'" font-size="10.728">r</tspan><tspan x="23.237" y="0" font-family="'CMR10'" font-size="10.728" letter-spacing="3">e</tspan><tspan x="32.099" y="0" font-family="'CMR10'" font-size="10.728">2</tspan><tspan x="37.656" y="0" font-family="'CMR10'" font-size="10.728" letter-spacing="4">:</tspan><tspan x="44.521" y="0" font-family="'CMR10'" font-size="10.728" letter-spacing="3">A</tspan><tspan x="54.67" y="0" font-family="'CMR10'" font-size="10.728">c</tspan><tspan x="59.23" y="0" font-family="'CMR10'" font-size="10.728">h</tspan><tspan x="65.173" y="0" font-family="'CMR10'" font-size="10.728">a</tspan><tspan x="70.398" y="0" font-family="'CMR10'" font-size="10.728">i</tspan><tspan x="72.908" y="0" font-family="'CMR10'" font-size="10.728">n</tspan><tspan x="78.852" y="0" font-family="'CMR10'" font-size="10.728">.</tspan></text></g></svg>